# File exported by Houdini 20.0.724 (www.sidefx.com)
# 6 points
# 24 vertices
# 8 primitives
# Bounds: [-1, 0, -1] to [1, 2, 1]
g 
v 0 1 -1
v 1 1 0
v 0 1 1
v -1 1 0
v 0 0 0
v 0 2 0
vt 0.687183619 0.199762151 0
vt 0.344568342 0.397571206 0
vt 0.344568342 0.001953125 0
vt 0.687183678 0.595380127 0
vt 0.00195313664 0.595380127 0
vt 0.001953125 0.199762136 0
vt 0.344568491 0.40234375 0
vt 0.687183738 0.600152791 0
vt 0.344568461 0.797961771 0
vt 0.00195319182 0.600152671 0
vt 0.001953125 0.995770752 0
vt 0.687183619 0.995770812 0
vn -0.577350259 -0.577350259 -0.577350259
vn -0.577350259 -0.577350259 -0.577350259
vn -0.577350259 -0.577350259 -0.577350259
vn 0.577350259 -0.577350259 -0.577350259
vn 0.577350259 -0.577350259 -0.577350259
vn 0.577350259 -0.577350259 -0.577350259
vn 0.577350259 -0.577350259 0.577350259
vn 0.577350259 -0.577350259 0.577350259
vn 0.577350259 -0.577350259 0.577350259
vn -0.577350259 -0.577350259 0.577350259
vn -0.577350259 -0.577350259 0.577350259
vn -0.577350259 -0.577350259 0.577350259
vn -0.577350259 0.577350259 -0.577350259
vn -0.577350259 0.577350259 -0.577350259
vn -0.577350259 0.577350259 -0.577350259
vn 0.577350259 0.577350259 -0.577350259
vn 0.577350259 0.577350259 -0.577350259
vn 0.577350259 0.577350259 -0.577350259
vn 0.577350259 0.577350259 0.577350259
vn 0.577350259 0.577350259 0.577350259
vn 0.577350259 0.577350259 0.577350259
vn -0.577350259 0.577350259 0.577350259
vn -0.577350259 0.577350259 0.577350259
vn -0.577350259 0.577350259 0.577350259
g 
f 1/1/1 5/2/2 4/3/3
f 1/1/4 2/4/5 5/2/6
f 2/5/7 3/6/8 5/2/9
f 3/6/10 4/3/11 5/2/12
f 1/7/13 4/8/14 6/9/15
f 1/7/16 6/9/17 2/10/18
f 2/10/19 6/9/20 3/11/21
f 3/12/22 6/9/23 4/8/24
